<?xml version="1.0" encoding="utf-8"?>
<!-- Generator: Adobe Illustrator 23.0.4, SVG Export Plug-In . SVG Version: 6.00 Build 0)  -->
<svg version="1.1" id="Layer_1" xmlns="http://www.w3.org/2000/svg" xmlns:xlink="http://www.w3.org/1999/xlink" x="0px" y="0px"
	 viewBox="0 0 2793.4 747.8" style="enable-background:new 0 0 2793.4 747.8;" xml:space="preserve">
<style type="text/css">
	.st0{fill:#DE322A;}
	.st1{fill:#453650;}
	.st2{fill:#E98124;}
	.st3{fill:#00B8A0;}
	.st4{opacity:0.7;}
</style>
<g>
	<path class="st0" d="M349.8,353.6c12,13.7,17.9,31.5,17.6,53.5c-0.2,21.2-5.9,38.5-16.9,51.8c-4.4,5.3-9.9,9-16.7,10.9
		c-3.4,1-9.5,1.9-18.4,2.7c-10.1,1-23.3,0.8-39.8-0.4c-20.5-1.6-33.8-2.4-39.8-2.4c-9.5,0-14.4,0-14.9,0c-5.6-0.7-10.3-2.8-14.2-6.2
		c-3.2-2.8-4.9-6.2-5.3-10.4c-1.8-18.8-2.5-40.7-2-65.7c-0.4-18.2,0.2-40.6,1.6-67.1c2.1-39.3,3.2-60.8,3.3-64.6
		c0.6-20.6-1.3-43.6-5.8-68.9c-1-5.9,0.3-10,3.8-12.2c23.3-14.9,45.7-17.3,67.3-7.3c15.2,7,31.7,17.3,49.7,30.7
		c4.2,3.3,8.2,10.1,12,20.4c8.1,22.7,8.2,47.7,0.2,75.1c-2.2,7.4-5.1,16.1-8.7,26c-1.5,3.9-1.9,6.9-1.5,9.1c0.6,2.7,2.5,4.9,5.8,6.5
		C336,340.4,343.6,346.4,349.8,353.6z M268.5,324.3c0,4.7-0.1,6.9-0.2,6.5c0.4,2.4,1.6,3.5,3.6,3.1c0.5-0.1,2.4-0.4,5.8-0.7
		c2.5-0.2,4.5-0.5,6-0.9c4.6-1.2,7.8-3.6,9.5-7.1c13-25.7,19.3-49,18.9-70c0-15.8-3.9-29.2-11.8-40.2c-8.1-11.4-19.5-19-34-22.7
		c-2.8-0.7-4.7-0.6-5.6,0.4c-0.8,1.1-1,3.4-0.5,6.9c0.8,6.1,2.2,18.9,4.2,38.4C267.3,268,268.7,296.8,268.5,324.3z M341.1,414.5
		c1.1-13.2-3.3-27.3-13.1-42.2c-6.1-9.2-12-14.4-17.8-15.6c-5.9-1.2-12.8,1.6-20.6,8.4c-3.6,3.2-5.2,4.7-4.7,4.5
		c-6.5,1.8-10.5,5.6-12,11.5c-0.8,3.6-0.7,9.8,0.4,18.4c0,1,0.3,3,0.9,6c0.4,2.4,0.6,4.4,0.7,5.8c0.1,1.5,0.4,4.1,0.7,8
		c0.4,3.4,0.5,6.1,0.5,8.2c0,6.2-1.8,11.4-5.3,15.6c5.1-0.4,12.4,0.2,22,1.6c9.6,1.5,16.7,2,21.3,1.6c7.8-0.5,14-3.6,18.7-9.3
		C337.5,431.5,340.2,424,341.1,414.5z"/>
	<path class="st1" d="M588.7,245.9c2.1,7.2,2.5,24.1,1.5,50.9c-0.4,9.9-3.3,23.2-8.7,39.8c-1.9,5.8-6.6,14.6-14,26.4
		c-6.9,11-13.7,19.5-20.4,25.5c-15.9,13.9-34.4,21.2-55.7,21.6c-20.4,0.4-37.7-9.6-52-29.8c-7.5-10.5-13.5-27.5-18-50.7
		c-2.1-11.4-3-24.1-2.9-38.2c0.1-8.4,0.8-16.2,2-23.5c-0.4-0.7-0.5-1.5-0.4-2.4c3.9-18.3,10.8-35.5,20.7-51.5
		c12.6-20.2,27-32.4,43.3-36.4c6.7-2.3,13.8-3.7,21.5-4.2c4.1-0.4,8.3-0.2,12.5,0.5c17.9-0.6,33.2,5.5,45.8,18.2
		c12.2,12.6,19.9,27.1,23.1,43.5C588.4,243.2,589,246.6,588.7,245.9z M532.7,367.9c11-21.1,17.2-41.2,18.4-60.2
		c-0.7-10.7-1.8-21.2-3.1-31.5c-2.2-15.6-5.2-30.6-8.9-44.9c-2.1-7.9-3.3-12.2-3.6-12.9c-5.3-9.6-12-14.3-20-14.2
		c-5.2,0-12.4,2.4-21.5,7.3c-3.5,2.9-6.3,5.8-8.4,8.7c-12.6,16.9-19.3,36-20,57.5c0,13,2.3,30.1,6.9,51.3
		c4.6,21.1,9.2,35.9,13.6,44.4c2.8,5.2,4.3,8,4.5,8.4c2.3,2.9,5.3,4.2,8.9,4C516.1,384.6,527.1,378.6,532.7,367.9z"/>
	<path class="st2" d="M848,417.8c0.2,5.2-0.1,8.4-0.9,9.6c-0.6,0.8-3.2,2.2-7.8,4.2c-1.1,0.4-7.6,0.9-19.6,1.6
		c-2.7,0.1-4.8-1.3-6.4-4.4c-1.2-2.7-1.8-5.6-1.6-8.9c0.2-6.1-0.2-14.4-1.3-25.1c-1.2-11.6-1.8-19.9-1.8-24.9
		c0-8-0.4-41.8-1.1-101.3c0-0.1-0.2-1.8-0.5-5.1c-9,16.9-13.7,25.8-14.2,26.7c-12.6,26.1-21.9,43.6-27.8,52.7
		c-4,6.2-8.5,16.1-13.6,29.6c-1.9,5.3-4.9,9.3-8.9,11.8c-3.8,2.4-8.1,3.3-12.9,2.7c-3.5-0.5-6.6-2.1-9.3-4.9
		c-1.6-1.6-3.7-4.6-6.4-9.1c-6.3-10.3-13.6-24.1-22-41.3c-11.9-24.7-18.7-38.8-20.6-42.2c-0.1-0.1-0.8-1.2-2.2-3.3
		c-1.5,4.2-1.8,8.4-0.9,12.4c0.4,1.9,0.4,4.5,0,7.8c-0.4,4.5-0.6,7.1-0.7,7.8c0,12.6,0.7,30.3,2,53.1c-0.1-1.1,0,10.4,0.4,34.4
		c0.2,13.5,0.6,21.4,1.1,23.8c0.5,2.3,0.5,4.6,0.2,6.9c-0.5,2.5-1.3,4.1-2.5,4.7c-3.9,2.2-5.9,3.3-6.2,3.3c-2.4,1.1-4.6,1.2-6.5,0.4
		c-3.8-1.6-5.7-5.4-5.8-11.5c-0.7-26.2-1.2-44-1.3-53.3c-0.1-4.4-0.2-8.6-0.4-12.7c-3.2-30.1-4-55.7-2.5-76.9
		c0.4-5,0.7-8.6,0.9-10.9c-0.4-9.1-0.5-20.7-0.5-34.9c-0.1-19.5-0.2-31.2-0.2-34.9c-0.1-6.4,0.8-16.4,2.9-29.8
		c0.7-5,3.2-8.1,7.5-9.3c3.9-1,7.2,1,9.8,5.8c11.2,20.5,19.2,36.1,24.2,46.9c7.6,17,15.8,39.6,24.4,67.8c0.5,1.5,8.8,20.2,24.9,56.2
		c9-17.1,13.7-26,14.2-26.7c0.4-0.6,13.9-26.2,40.6-76.9c10.9-20.7,16.8-31.6,17.6-32.6c0.2-0.4,0.4-0.8,0.5-1.5
		c0.2-8.4,3.8-12.6,10.7-12.7c9.3,0,15.8,4.4,19.5,13.1c3.3,7.8,4.8,20.9,4.7,39.5c-0.1,17-0.2,27-0.2,30
		c0.4,17.5,0.5,29.1,0.5,34.9c0.1,7.9-0.1,19-0.5,33.3c-0.5,15.5-0.7,26.6-0.7,33.3C846.6,385.8,847.1,399.4,848,417.8z"/>
	<path class="st0" d="M1203.3,353.6c12,13.7,17.9,31.5,17.6,53.5c-0.2,21.2-5.9,38.5-16.9,51.8c-4.4,5.3-9.9,9-16.7,10.9
		c-3.4,1-9.5,1.9-18.4,2.7c-10.1,1-23.3,0.8-39.8-0.4c-20.5-1.6-33.8-2.4-39.8-2.4c-9.5,0-14.4,0-14.9,0c-5.6-0.7-10.3-2.8-14.2-6.2
		c-3.2-2.8-4.9-6.2-5.3-10.4c-1.8-18.8-2.5-40.7-2-65.7c-0.4-18.2,0.2-40.6,1.6-67.1c2.1-39.3,3.2-60.8,3.3-64.6
		c0.6-20.6-1.3-43.6-5.8-68.9c-1-5.9,0.3-10,3.8-12.2c23.3-14.9,45.7-17.3,67.3-7.3c15.2,7,31.7,17.3,49.7,30.7
		c4.2,3.3,8.2,10.1,12,20.4c8.1,22.7,8.2,47.7,0.2,75.1c-2.2,7.4-5.1,16.1-8.7,26c-1.5,3.9-1.9,6.9-1.5,9.1c0.6,2.7,2.5,4.9,5.8,6.5
		C1189.6,340.4,1197.2,346.4,1203.3,353.6z M1122,324.3c0,4.7-0.1,6.9-0.2,6.5c0.4,2.4,1.6,3.5,3.6,3.1c0.5-0.1,2.4-0.4,5.8-0.7
		c2.5-0.2,4.5-0.5,6-0.9c4.6-1.2,7.8-3.6,9.5-7.1c13-25.7,19.3-49,18.9-70c0-15.8-3.9-29.2-11.8-40.2c-8.1-11.4-19.5-19-34-22.7
		c-2.8-0.7-4.7-0.6-5.6,0.4c-0.8,1.1-1,3.4-0.5,6.9c0.8,6.1,2.2,18.9,4.2,38.4C1120.9,268,1122.3,296.8,1122,324.3z M1194.6,414.5
		c1.1-13.2-3.3-27.3-13.1-42.2c-6.1-9.2-12-14.4-17.8-15.6c-5.9-1.2-12.8,1.6-20.6,8.4c-3.6,3.2-5.2,4.7-4.7,4.5
		c-6.5,1.8-10.5,5.6-12,11.5c-0.8,3.6-0.7,9.8,0.4,18.4c0,1,0.3,3,0.9,6c0.4,2.4,0.6,4.4,0.7,5.8c0.1,1.5,0.4,4.1,0.7,8
		c0.4,3.4,0.5,6.1,0.5,8.2c0,6.2-1.8,11.4-5.3,15.6c5.1-0.4,12.4,0.2,22,1.6c9.6,1.5,16.7,2,21.3,1.6c7.8-0.5,14-3.6,18.7-9.3
		C1191,431.5,1193.8,424,1194.6,414.5z"/>
	<path class="st1" d="M1329.7,379.2c0.5,2.1,0.1,3.9-1.1,5.5c-1,1.6-2.4,2.7-4.4,3.3c0.5-0.1-1.7,1.2-6.5,3.8
		c-7.2,3.9-12.4,6.2-15.8,7.1c-5.8,1.3-10.1,1-12.9-0.9c-2.8-1.9-4.6-5.8-5.5-11.6c-0.2-1.5-0.4-3.6-0.4-6.5c-0.1-3-0.2-5.2-0.4-6.5
		c-0.8-7.5-1.2-11.6-1.1-12.4c-2.1-35.5-3.2-54.7-3.3-57.7c-2.1-39.2-3-58.9-2.9-59.3c0.2-5.7-0.4-14.7-1.8-26.9
		c-1.5-11.5-1.9-20.4-1.3-26.7c0.1-2.1,0.1-4.1,0-6c-0.4-4.4,1.8-8.2,6.5-11.6c4.2-3.2,8.6-4.5,13.1-4.2c5.3,0.4,9.9,1.3,13.8,2.9
		c4.2,1.7,7.2,3.5,8.7,5.5c1.9,2.5,3.1,6.5,3.5,11.8c2.2,30.8,3.3,52.4,3.5,64.7c0.1,2.9,0.4,9.5,0.7,19.6
		c0.4,8.2,0.5,14.9,0.4,19.8c-0.7,21.5,0.2,40.4,2.9,56.7c0.5,2.5,1.2,7.5,2,14.9C1328.2,370.7,1329,375.6,1329.7,379.2z"/>
	<path class="st3" d="M1533.9,353.6c12,13.7,17.9,31.5,17.6,53.5c-0.2,21.2-5.9,38.5-16.9,51.8c-4.4,5.3-9.9,9-16.7,10.9
		c-3.4,1-9.5,1.9-18.4,2.7c-10.1,1-23.3,0.8-39.8-0.4c-20.5-1.6-33.8-2.4-39.8-2.4c-9.5,0-14.4,0-14.9,0c-5.6-0.7-10.3-2.8-14.2-6.2
		c-3.2-2.8-4.9-6.2-5.3-10.4c-1.8-18.8-2.5-40.7-2-65.7c-0.4-18.2,0.2-40.6,1.6-67.1c2.1-39.3,3.2-60.8,3.3-64.6
		c0.6-20.6-1.3-43.6-5.8-68.9c-1-5.9,0.3-10,3.8-12.2c23.3-14.9,45.7-17.3,67.3-7.3c15.2,7,31.7,17.3,49.7,30.7
		c4.2,3.3,8.2,10.1,12,20.4c8.1,22.7,8.2,47.7,0.2,75.1c-2.2,7.4-5.1,16.1-8.7,26c-1.5,3.9-1.9,6.9-1.5,9.1c0.6,2.7,2.5,4.9,5.8,6.5
		C1520.1,340.4,1527.7,346.4,1533.9,353.6z M1452.6,324.3c0,4.7-0.1,6.9-0.2,6.5c0.4,2.4,1.6,3.5,3.6,3.1c0.5-0.1,2.4-0.4,5.8-0.7
		c2.5-0.2,4.5-0.5,6-0.9c4.6-1.2,7.8-3.6,9.5-7.1c13-25.7,19.3-49,18.9-70c0-15.8-3.9-29.2-11.8-40.2c-8.1-11.4-19.5-19-34-22.7
		c-2.8-0.7-4.7-0.6-5.6,0.4c-0.8,1.1-1,3.4-0.5,6.9c0.8,6.1,2.2,18.9,4.2,38.4C1451.5,268,1452.9,296.8,1452.6,324.3z M1525.2,414.5
		c1.1-13.2-3.3-27.3-13.1-42.2c-6.1-9.2-12-14.4-17.8-15.6c-5.9-1.2-12.8,1.6-20.6,8.4c-3.6,3.2-5.2,4.7-4.7,4.5
		c-6.5,1.8-10.5,5.6-12,11.5c-0.8,3.6-0.7,9.8,0.4,18.4c0,1,0.3,3,0.9,6c0.4,2.4,0.6,4.4,0.7,5.8c0.1,1.5,0.4,4.1,0.7,8
		c0.4,3.4,0.5,6.1,0.5,8.2c0,6.2-1.8,11.4-5.3,15.6c5.1-0.4,12.4,0.2,22,1.6c9.6,1.5,16.7,2,21.3,1.6c7.8-0.5,14-3.6,18.7-9.3
		C1521.6,431.5,1524.3,424,1525.2,414.5z"/>
	<path class="st1" d="M1659.5,379.2c0.5,2.1,0.1,3.9-1.1,5.5c-1,1.6-2.4,2.7-4.4,3.3c0.5-0.1-1.7,1.2-6.5,3.8
		c-7.2,3.9-12.4,6.2-15.8,7.1c-5.8,1.3-10.1,1-12.9-0.9c-2.8-1.9-4.6-5.8-5.5-11.6c-0.2-1.5-0.4-3.6-0.4-6.5c-0.1-3-0.2-5.2-0.4-6.5
		c-0.8-7.5-1.2-11.6-1.1-12.4c-2.1-35.5-3.2-54.7-3.3-57.7c-2.1-39.2-3-58.9-2.9-59.3c0.2-5.7-0.4-14.7-1.8-26.9
		c-1.5-11.5-1.9-20.4-1.3-26.7c0.1-2.1,0.1-4.1,0-6c-0.4-4.4,1.8-8.2,6.5-11.6c4.2-3.2,8.6-4.5,13.1-4.2c5.3,0.4,9.9,1.3,13.8,2.9
		c4.2,1.7,7.2,3.5,8.7,5.5c1.9,2.5,3.1,6.5,3.5,11.8c2.2,30.8,3.3,52.4,3.5,64.7c0.1,2.9,0.4,9.5,0.7,19.6
		c0.4,8.2,0.5,14.9,0.4,19.8c-0.7,21.5,0.2,40.4,2.9,56.7c0.5,2.5,1.2,7.5,2,14.9C1658.1,370.7,1658.8,375.6,1659.5,379.2z"/>
	<path class="st2" d="M1917.9,417.8c0.2,5.2-0.1,8.4-0.9,9.6c-0.6,0.8-3.2,2.2-7.8,4.2c-1.1,0.4-7.6,0.9-19.6,1.6
		c-2.7,0.1-4.8-1.3-6.4-4.4c-1.2-2.7-1.8-5.6-1.6-8.9c0.2-6.1-0.2-14.4-1.3-25.1c-1.2-11.6-1.8-19.9-1.8-24.9
		c0-8-0.4-41.8-1.1-101.3c0-0.1-0.2-1.8-0.5-5.1c-9,16.9-13.7,25.8-14.2,26.7c-12.6,26.1-21.9,43.6-27.8,52.7
		c-4,6.2-8.5,16.1-13.6,29.6c-1.9,5.3-4.9,9.3-8.9,11.8c-3.8,2.4-8.1,3.3-12.9,2.7c-3.5-0.5-6.6-2.1-9.3-4.9
		c-1.6-1.6-3.7-4.6-6.4-9.1c-6.3-10.3-13.6-24.1-22-41.3c-11.9-24.7-18.7-38.8-20.6-42.2c-0.1-0.1-0.8-1.2-2.2-3.3
		c-1.5,4.2-1.8,8.4-0.9,12.4c0.4,1.9,0.4,4.5,0,7.8c-0.4,4.5-0.6,7.1-0.7,7.8c0,12.6,0.7,30.3,2,53.1c-0.1-1.1,0,10.4,0.4,34.4
		c0.2,13.5,0.6,21.4,1.1,23.8c0.5,2.3,0.5,4.6,0.2,6.9c-0.5,2.5-1.3,4.1-2.5,4.7c-3.9,2.2-5.9,3.3-6.2,3.3c-2.4,1.1-4.6,1.2-6.5,0.4
		c-3.8-1.6-5.7-5.4-5.8-11.5c-0.7-26.2-1.2-44-1.3-53.3c-0.1-4.4-0.2-8.6-0.4-12.7c-3.2-30.1-4-55.7-2.5-76.9
		c0.4-5,0.7-8.6,0.9-10.9c-0.4-9.1-0.5-20.7-0.5-34.9c-0.1-19.5-0.2-31.2-0.2-34.9c-0.1-6.4,0.8-16.4,2.9-29.8
		c0.7-5,3.2-8.1,7.5-9.3c3.9-1,7.2,1,9.8,5.8c11.2,20.5,19.2,36.1,24.2,46.9c7.6,17,15.8,39.6,24.4,67.8c0.5,1.5,8.8,20.2,24.9,56.2
		c9-17.1,13.7-26,14.2-26.7c0.4-0.6,13.9-26.2,40.6-76.9c10.9-20.7,16.8-31.6,17.6-32.6c0.2-0.4,0.4-0.8,0.5-1.5
		c0.2-8.4,3.8-12.6,10.7-12.7c9.3,0,15.8,4.4,19.5,13.1c3.3,7.8,4.8,20.9,4.7,39.5c-0.1,17-0.2,27-0.2,30
		c0.4,17.5,0.5,29.1,0.5,34.9c0.1,7.9-0.1,19-0.5,33.3c-0.5,15.5-0.7,26.6-0.7,33.3C1916.5,385.8,1917,399.4,1917.9,417.8z"/>
	<path class="st1" d="M2124.1,353.6c12,13.7,17.9,31.5,17.6,53.5c-0.2,21.2-5.9,38.5-16.9,51.8c-4.4,5.3-9.9,9-16.7,10.9
		c-3.4,1-9.5,1.9-18.4,2.7c-10.1,1-23.3,0.8-39.8-0.4c-20.5-1.6-33.8-2.4-39.8-2.4c-9.5,0-14.4,0-14.9,0c-5.6-0.7-10.3-2.8-14.2-6.2
		c-3.2-2.8-4.9-6.2-5.3-10.4c-1.8-18.8-2.5-40.7-2-65.7c-0.4-18.2,0.2-40.6,1.6-67.1c2.1-39.3,3.2-60.8,3.3-64.6
		c0.6-20.6-1.3-43.6-5.8-68.9c-1-5.9,0.3-10,3.8-12.2c23.3-14.9,45.7-17.3,67.3-7.3c15.2,7,31.7,17.3,49.7,30.7
		c4.2,3.3,8.2,10.1,12,20.4c8.1,22.7,8.2,47.7,0.2,75.1c-2.2,7.4-5.1,16.1-8.7,26c-1.5,3.9-1.9,6.9-1.5,9.1c0.6,2.7,2.5,4.9,5.8,6.5
		C2110.4,340.4,2118,346.4,2124.1,353.6z M2042.8,324.3c0,4.7-0.1,6.9-0.2,6.5c0.4,2.4,1.6,3.5,3.6,3.1c0.5-0.1,2.4-0.4,5.8-0.7
		c2.5-0.2,4.5-0.5,6-0.9c4.6-1.2,7.8-3.6,9.5-7.1c13-25.7,19.3-49,18.9-70c0-15.8-3.9-29.2-11.8-40.2c-8.1-11.4-19.5-19-34-22.7
		c-2.8-0.7-4.7-0.6-5.6,0.4c-0.8,1.1-1,3.4-0.5,6.9c0.8,6.1,2.2,18.9,4.2,38.4C2041.7,268,2043.1,296.8,2042.8,324.3z M2115.4,414.5
		c1.1-13.2-3.3-27.3-13.1-42.2c-6.1-9.2-12-14.4-17.8-15.6c-5.9-1.2-12.8,1.6-20.6,8.4c-3.6,3.2-5.2,4.7-4.7,4.5
		c-6.5,1.8-10.5,5.6-12,11.5c-0.8,3.6-0.7,9.8,0.4,18.4c0,1,0.3,3,0.9,6c0.4,2.4,0.6,4.4,0.7,5.8c0.1,1.5,0.4,4.1,0.7,8
		c0.4,3.4,0.5,6.1,0.5,8.2c0,6.2-1.8,11.4-5.3,15.6c5.1-0.4,12.4,0.2,22,1.6c9.6,1.5,16.7,2,21.3,1.6c7.8-0.5,14-3.6,18.7-9.3
		C2111.8,431.5,2114.6,424,2115.4,414.5z"/>
	<path class="st3" d="M2382,405.8c1,2.5,0.5,5.3-1.3,8.2c-1.8,2.8-4.2,4.6-7.1,5.5c0.1-0.1-0.5-0.1-2,0.2l-19.3,2.4
		c-5.7,0.6-9.8-0.5-12.4-3.5c-1.3-1.7-3.1-5.9-5.3-12.5c-4.9-14.7-7.6-23.3-8.2-25.8c-1-3.6-4.7-15.7-11.3-36.2
		c-2.4-7.5-7.8-10.5-16-8.9c-12.7,2.5-27.2,2.8-43.3,0.7c-10.4-1.2-16.6-2.4-18.6-3.6c-1.1-0.6-1.9-0.5-2.5,0.2
		c0.1-0.2-0.3,0.6-1.3,2.5c-2.8,5.6-10.4,23.4-22.9,53.5c-7.2,17.2-10.9,26.2-11.1,26.9c-0.7,2.2-2.3,3.4-4.7,3.6
		c-0.7,0.1-1.8,0.2-3.3,0.2c-1.3-0.1-2.4-0.1-3.1,0c-1.6,0.2-3-0.9-4.4-3.5c-1.3-2.4-1.8-4.8-1.5-7.1c-0.2,1.1,2.2-4.4,7.5-16.5
		c3-7,7.2-16.5,12.5-28.6c6.2-13.9,10.4-23.5,12.7-28.7c4.8-11,13.8-33,26.9-66c16.9-42.7,27.6-69,32.4-78.9
		c0.7-1.5,1.7-3.4,2.9-5.8c1.5-2.7,2.4-4.5,2.9-5.6c1.5-2.8,3.4-4.4,5.8-4.9c2.3-0.4,4.7,0.5,7.3,2.7c6.4,5.6,12.2,15,17.3,28.4
		c6.4,17,14.1,38.9,23.1,65.7c4.4,12.9,12.5,35.9,24.4,69.1c-0.6-1.9,4.2,11.3,14.5,39.6c0.8,2.5,2.3,7,4.4,13.5
		C2379.1,398,2380.7,402.5,2382,405.8z M2298.7,313.2c2.9,0.2,4.7-0.1,5.5-0.9c0.7-0.7,0.7-2.2,0-4.5c-2.5-9.2-6.3-20.1-11.3-32.7
		c-1.5-3.8-3.7-9.6-6.7-17.6c-2.9-7.8-5.2-13.7-6.9-17.8c-1.5-3.6-2.9-5.5-4.4-5.6c-1.9,0-3.2,1.8-3.8,5.3
		c-0.4,1.7-3.4,9.6-9.1,23.6c-1,2.4-3.8,10.4-8.5,23.8c-3.4,9.7-6.6,17.5-9.6,23.3c-1.1,2.3-0.4,3.6,2.2,4c2.5,0.4,4.4,0.6,5.6,0.7
		C2258.5,315.7,2274.2,315.3,2298.7,313.2z"/>
	<path class="st1" d="M2582.4,220.8c5.6,18.2,8.8,29.5,9.8,33.8c2.9,13,3.7,24.8,2.4,35.5c-2.2,16.2-3.7,26.2-4.5,29.8
		c0,0.7-0.1,1.5-0.4,2.2c-0.1,0-0.2,0.1-0.2,0.4c-0.1,0.1-0.2,0.2-0.2,0.4c-0.8,2.5-1.6,4.7-2.4,6.5c-1.5,3.9-3.3,6.2-5.6,6.9
		c-7.5,9.8-18.9,18.8-34,26.9c-0.7,0.4-14.1,6.5-40.2,18.6c-0.7,0.2-1.5,0.4-2.4,0.4c-0.2,1-0.3,1.9-0.2,2.9
		c0.1,1.1,0.5,6.7,1.1,16.7c0.1,14.3,3.5,39.2,10.2,74.7c0.8,4.8,0.6,8.7-0.7,11.5c-1.3,2.8-4.2,5.2-8.5,7.1
		c-4.5,2.1-13.9,4-28.4,5.8c-10.5,8.1-19.1,9.2-25.6,3.3c-4-3.6-6.3-10.8-6.9-21.5c-0.6-11.5,0.3-24,2.7-37.5
		c0.2-0.8,0.7-1.6,1.3-2.2c-0.2-13.6-0.5-23.4-0.9-29.5c-0.8-13.2-1.8-33.6-2.7-61.3c-1-26.9-1.9-47.3-2.9-61.3
		c-0.4-7-1.3-16.5-2.9-28.6c-1.7-13.7-2.8-23.3-3.3-28.7c0-0.1-0.3-3-0.9-8.7c-1.7-0.7-2.6-1.9-2.7-3.6c-1.2-10.2-1.8-15.7-1.8-16.5
		c-0.1-6.5,1.3-11.8,4.2-15.6V189v-0.2c0.5-0.1,0.6-0.2,0.4-0.2c0.7-0.8,1.5-1.6,2.2-2.4c3.5-3,7.8-4.5,12.7-4.4
		c0-0.1,0.1-0.2,0.4-0.4c0.2-0.1,0.4-0.2,0.5-0.4c21.3-14.2,43.3-17.8,66-10.9c15.4,4.7,31.6,13.6,48.7,26.7
		c7.4,5.7,11.1,8.5,11.1,8.5S2579.2,210.6,2582.4,220.8z M2514.9,343.9c13.1-8.4,22.8-20.6,29.1-36.7c6.5-16.2,7.9-32.2,4-47.8
		c-5.3-21.9-13.9-36.6-25.6-44c-2.4-1.6-3.5-2.3-3.3-2.2c-7.8-2.1-11.9-3.2-12.5-3.3c-4.5-0.6-8.6,0.2-12.4,2.5v0.4
		c-0.4,19.2,0.9,59.5,3.8,121.1c0.2,5.2,0.4,7.9,0.4,8.2c0.5,2.9,1.8,4.9,4,6c1.9,1.1,4.1,1,6.5-0.2
		C2508.9,347.9,2510.9,346.6,2514.9,343.9z"/>
</g>
<g class="st4">
	<path class="st2" d="M720.8,601.4l-12.3,38.9h-12.1l-16.5-53.1h12l11.2,38.6l12.6-38.6h10.1l12.6,38.6l11.2-38.6h12l-16.5,53.1
		h-12.1L720.8,601.4z"/>
	<path class="st2" d="M818,601.4l-12.3,38.9h-12.1l-16.5-53.1h12l11.2,38.6l12.6-38.6h10.1l12.6,38.6l11.2-38.6h12l-16.5,53.1h-12.1
		L818,601.4z"/>
	<path class="st2" d="M915.3,601.4l-12.3,38.9h-12.1l-16.5-53.1h12l11.2,38.6l12.6-38.6h10.1l12.6,38.6l11.2-38.6h12l-16.5,53.1
		h-12.1L915.3,601.4z"/>
	<path class="st2" d="M980.1,626.1c4.2,0,7.7,3.5,7.7,7.7s-3.5,7.7-7.7,7.7c-4.2,0-7.7-3.5-7.7-7.7S975.9,626.1,980.1,626.1z"/>
	<path class="st0" d="M1015.4,566.9h11.6v27.6c4.2-5.6,10.3-8.7,17-8.7c13.6,0,23.5,10.8,23.5,27.9c0,17.5-10,27.8-23.5,27.8
		c-6.9,0-13-3.3-17-8.6v7.3h-11.6V566.9z M1040.6,631.4c9.2,0,15.1-7.3,15.1-17.6c0-10.3-5.8-17.7-15.1-17.7
		c-5.4,0-11.1,3.3-13.6,7.3v21C1029.4,628.3,1035.2,631.4,1040.6,631.4z"/>
	<path class="st0" d="M1090.3,613.7c0-15.2,10.4-27.8,27.3-27.8c17.1,0,27.4,12.7,27.4,27.8c0,15.3-10.3,27.9-27.4,27.9
		C1100.7,641.6,1090.3,629,1090.3,613.7z M1133,613.7c0-9.3-5.5-17.6-15.4-17.6c-9.8,0-15.3,8.2-15.3,17.6c0,9.5,5.5,17.7,15.3,17.7
		C1127.5,631.4,1133,623.1,1133,613.7z"/>
	<path class="st0" d="M1236,605.6c0-5.7-2.5-9.6-8.7-9.6c-5.2,0-10,3.6-12.3,7v37.2h-11.6v-34.7c0-5.7-2.5-9.6-8.8-9.6
		c-5.1,0-9.8,3.6-12.2,7.2v37.1h-11.6v-53.1h11.6v7.3c2.2-3.3,9.2-8.6,17.3-8.6c7.9,0,12.8,4,14.5,9.8c3.1-4.8,10.1-9.8,18-9.8
		c9.8,0,15.3,5.3,15.3,16.1v38.4H1236V605.6z"/>
	<path class="st0" d="M1276.8,566.9h11.5v27.6c4.2-5.6,10.3-8.7,17.1-8.7c13.6,0,23.5,10.8,23.5,27.9c0,17.5-10,27.8-23.5,27.8
		c-6.9,0-13-3.3-17.1-8.6v7.3h-11.5V566.9z M1302,631.4c9.2,0,15.1-7.3,15.1-17.6c0-10.3-5.8-17.7-15.1-17.7
		c-5.4,0-11.1,3.3-13.6,7.3v21C1290.9,628.3,1296.6,631.4,1302,631.4z"/>
	<path class="st0" d="M1353.6,571.2c0-4,3.3-7.2,7.2-7.2c4,0,7.2,3.2,7.2,7.2c0,4-3.2,7.1-7.2,7.1
		C1356.9,578.4,1353.6,575.2,1353.6,571.2z M1355,587.2h11.5v53.1H1355V587.2z"/>
	<path class="st0" d="M1395.9,566.9h11.5v27.6c4.2-5.6,10.3-8.7,17.1-8.7c13.6,0,23.5,10.8,23.5,27.9c0,17.5-10,27.8-23.5,27.8
		c-6.9,0-13-3.3-17.1-8.6v7.3h-11.5V566.9z M1421,631.4c9.2,0,15.1-7.3,15.1-17.6c0-10.3-5.8-17.7-15.1-17.7
		c-5.4,0-11.1,3.3-13.6,7.3v21C1409.9,628.3,1415.7,631.4,1421,631.4z"/>
	<path class="st0" d="M1472.6,571.2c0-4,3.3-7.2,7.2-7.2c4,0,7.2,3.2,7.2,7.2c0,4-3.2,7.1-7.2,7.1
		C1475.9,578.4,1472.6,575.2,1472.6,571.2z M1474.1,587.2h11.5v53.1h-11.5V587.2z"/>
	<path class="st0" d="M1580,605.6c0-5.7-2.5-9.6-8.7-9.6c-5.2,0-10,3.6-12.3,7v37.2h-11.5v-34.7c0-5.7-2.5-9.6-8.8-9.6
		c-5.1,0-9.8,3.6-12.2,7.2v37.1h-11.5v-53.1h11.5v7.3c2.2-3.3,9.2-8.6,17.3-8.6c7.9,0,12.8,4,14.5,9.8c3.1-4.8,10.1-9.8,18-9.8
		c9.8,0,15.3,5.3,15.3,16.1v38.4H1580V605.6z"/>
	<path class="st0" d="M1620.8,566.9h11.5v27.6c4.2-5.6,10.3-8.7,17-8.7c13.6,0,23.5,10.8,23.5,27.9c0,17.5-10,27.8-23.5,27.8
		c-6.9,0-13-3.3-17-8.6v7.3h-11.5V566.9z M1646,631.4c9.2,0,15.1-7.3,15.1-17.6c0-10.3-5.8-17.7-15.1-17.7c-5.4,0-11.1,3.3-13.6,7.3
		v21C1634.9,628.3,1640.6,631.4,1646,631.4z"/>
	<path class="st0" d="M1731.5,634.6c-4,4.5-10.1,7-17.2,7c-8.7,0-18.5-5.8-18.5-17.6c0-12.2,9.8-17.3,18.5-17.3
		c7.1,0,13.3,2.3,17.2,6.8v-7.9c0-6.2-5.1-9.9-12.4-9.9c-5.9,0-11.1,2.2-15.7,6.7l-4.7-8c6.2-5.8,13.9-8.6,22.3-8.6
		c11.8,0,22.1,5,22.1,19.2v35.2h-11.5V634.6z M1731.5,620.2c-2.6-3.6-7.6-5.5-12.7-5.5c-6.5,0-11.3,3.7-11.3,9.6
		c0,5.7,4.8,9.5,11.3,9.5c5.1,0,10-1.9,12.7-5.5V620.2z"/>
	<path class="st0" d="M1772.3,660.5v-73.4h11.5v7.3c4-5.3,10.1-8.6,17-8.6c13.8,0,23.5,10.3,23.5,27.8s-9.8,27.9-23.5,27.9
		c-6.7,0-12.8-3-17-8.7v27.6H1772.3z M1797.5,596.1c-5.4,0-11.1,3.2-13.6,7.2v21c2.5,3.8,8.2,7.2,13.6,7.2c9.1,0,15-7.4,15-17.7
		C1812.4,603.4,1806.6,596.1,1797.5,596.1z"/>
	<path class="st2" d="M1855.8,626.1c4.2,0,7.7,3.5,7.7,7.7s-3.5,7.7-7.7,7.7s-7.7-3.5-7.7-7.7S1851.6,626.1,1855.8,626.1z"/>
	<path class="st2" d="M1914.7,585.8c10.3,0,16.6,4.4,20.3,9.5l-7.6,7c-3-4.2-7-6.3-12.2-6.3c-9.7,0-16.1,7.3-16.1,17.6
		s6.4,17.7,16.1,17.7c5.2,0,9.2-2.2,12.2-6.3l7.6,7c-3.7,5.1-10,9.5-20.3,9.5c-16.2,0-27.5-11.8-27.5-27.9
		C1887.2,597.6,1898.5,585.8,1914.7,585.8z"/>
	<path class="st2" d="M1956.2,613.7c0-15.2,10.5-27.8,27.3-27.8c17.1,0,27.4,12.7,27.4,27.8c0,15.3-10.3,27.9-27.4,27.9
		C1966.6,641.6,1956.2,629,1956.2,613.7z M1998.9,613.7c0-9.3-5.5-17.6-15.4-17.6c-9.8,0-15.3,8.2-15.3,17.6
		c0,9.5,5.5,17.7,15.3,17.7C1993.4,631.4,1998.9,623.1,1998.9,613.7z"/>
	<path class="st2" d="M2101.9,605.6c0-5.7-2.5-9.6-8.7-9.6c-5.2,0-10,3.6-12.3,7v37.2h-11.5v-34.7c0-5.7-2.5-9.6-8.8-9.6
		c-5.1,0-9.8,3.6-12.2,7.2v37.1h-11.5v-53.1h11.5v7.3c2.2-3.3,9.2-8.6,17.3-8.6c7.9,0,12.8,4,14.5,9.8c3.1-4.8,10.1-9.8,18-9.8
		c9.8,0,15.3,5.3,15.3,16.1v38.4h-11.5V605.6z"/>
</g>
</svg>
